# Blender v2.78 (sub 0) OBJ File: ''
# www.blender.org
mtllib testobj.mtl
o Cylinder
v 0.008943 0.985242 -0.622195
v 0.008943 2.238984 -0.622195
v 0.131240 0.985242 -0.610150
v 0.131240 2.238984 -0.610150
v 0.248836 0.985242 -0.574478
v 0.248836 2.238984 -0.574478
v 0.357214 0.985242 -0.516549
v 0.357214 2.238984 -0.516549
v 0.452208 0.985242 -0.438589
v 0.452208 2.238984 -0.438589
v 0.530167 0.985242 -0.343595
v 0.530167 2.238984 -0.343595
v 0.588096 0.985242 -0.235218
v 0.588096 2.238984 -0.235218
v 0.623769 0.985242 -0.117621
v 0.623769 2.238984 -0.117621
v 0.635814 0.985242 0.004676
v 0.635814 2.238984 0.004676
v 0.623769 0.985242 0.126972
v 0.623769 2.238984 0.126972
v 0.588096 0.985242 0.244569
v 0.588096 2.238984 0.244569
v 0.530167 0.985242 0.352946
v 0.530167 2.238984 0.352946
v 0.452208 0.985242 0.447940
v 0.452208 2.238984 0.447940
v 0.357214 0.985242 0.525900
v 0.357214 2.238984 0.525900
v 0.248836 0.985242 0.583829
v 0.248836 2.238984 0.583829
v 0.131240 0.985242 0.619501
v 0.131240 2.238984 0.619501
v 0.008943 0.985242 0.631547
v 0.008943 2.238984 0.631547
v -0.113354 0.985242 0.619501
v -0.113354 2.238984 0.619501
v -0.230950 0.985242 0.583829
v -0.230950 2.238984 0.583829
v -0.339328 0.985242 0.525900
v -0.339328 2.238984 0.525900
v -0.434322 0.985242 0.447940
v -0.434322 2.238984 0.447940
v -0.512281 0.985242 0.352946
v -0.512281 2.238984 0.352946
v -0.570210 0.985242 0.244568
v -0.570210 2.238984 0.244568
v -0.605883 0.985242 0.126972
v -0.605883 2.238984 0.126972
v -0.617928 0.985242 0.004675
v -0.617928 2.238984 0.004675
v -0.605883 0.985242 -0.117622
v -0.605883 2.238984 -0.117622
v -0.570210 0.985242 -0.235218
v -0.570210 2.238984 -0.235218
v -0.512281 0.985242 -0.343596
v -0.512281 2.238984 -0.343596
v -0.434321 0.985242 -0.438590
v -0.434321 2.238984 -0.438590
v -0.339327 0.985242 -0.516549
v -0.339327 2.238984 -0.516549
v -0.230949 0.985242 -0.574478
v -0.230949 2.238984 -0.574478
v -0.113352 0.985242 -0.610150
v -0.113352 2.238984 -0.610150
vn 0.0980 0.0000 -0.9952
vn 0.2903 0.0000 -0.9569
vn 0.4714 0.0000 -0.8819
vn 0.6344 0.0000 -0.7730
vn 0.7730 0.0000 -0.6344
vn 0.8819 0.0000 -0.4714
vn 0.9569 0.0000 -0.2903
vn 0.9952 0.0000 -0.0980
vn 0.9952 0.0000 0.0980
vn 0.9569 0.0000 0.2903
vn 0.8819 0.0000 0.4714
vn 0.7730 0.0000 0.6344
vn 0.6344 0.0000 0.7730
vn 0.4714 0.0000 0.8819
vn 0.2903 0.0000 0.9569
vn 0.0980 0.0000 0.9952
vn -0.0980 0.0000 0.9952
vn -0.2903 0.0000 0.9569
vn -0.4714 0.0000 0.8819
vn -0.6344 0.0000 0.7730
vn -0.7730 0.0000 0.6344
vn -0.8819 0.0000 0.4714
vn -0.9569 0.0000 0.2903
vn -0.9952 0.0000 0.0980
vn -0.9952 0.0000 -0.0980
vn -0.9569 0.0000 -0.2903
vn -0.8819 0.0000 -0.4714
vn -0.7730 0.0000 -0.6344
vn -0.6344 0.0000 -0.7730
vn -0.4714 0.0000 -0.8819
vn 0.0000 1.0000 0.0000
vn -0.2903 0.0000 -0.9569
vn -0.0980 0.0000 -0.9952
vn 0.0000 -1.0000 -0.0000
usemtl None
s off
f 1//1 2//1 4//1 3//1
f 3//2 4//2 6//2 5//2
f 5//3 6//3 8//3 7//3
f 7//4 8//4 10//4 9//4
f 9//5 10//5 12//5 11//5
f 11//6 12//6 14//6 13//6
f 13//7 14//7 16//7 15//7
f 15//8 16//8 18//8 17//8
f 17//9 18//9 20//9 19//9
f 19//10 20//10 22//10 21//10
f 21//11 22//11 24//11 23//11
f 23//12 24//12 26//12 25//12
f 25//13 26//13 28//13 27//13
f 27//14 28//14 30//14 29//14
f 29//15 30//15 32//15 31//15
f 31//16 32//16 34//16 33//16
f 33//17 34//17 36//17 35//17
f 35//18 36//18 38//18 37//18
f 37//19 38//19 40//19 39//19
f 39//20 40//20 42//20 41//20
f 41//21 42//21 44//21 43//21
f 43//22 44//22 46//22 45//22
f 45//23 46//23 48//23 47//23
f 47//24 48//24 50//24 49//24
f 49//25 50//25 52//25 51//25
f 51//26 52//26 54//26 53//26
f 53//27 54//27 56//27 55//27
f 55//28 56//28 58//28 57//28
f 57//29 58//29 60//29 59//29
f 59//30 60//30 62//30 61//30
f 4//31 2//31 64//31 62//31 60//31 58//31 56//31 54//31 52//31 50//31 48//31 46//31 44//31 42//31 40//31 38//31 36//31 34//31 32//31 30//31 28//31 26//31 24//31 22//31 20//31 18//31 16//31 14//31 12//31 10//31 8//31 6//31
f 61//32 62//32 64//32 63//32
f 63//33 64//33 2//33 1//33
f 1//34 3//34 5//34 7//34 9//34 11//34 13//34 15//34 17//34 19//34 21//34 23//34 25//34 27//34 29//34 31//34 33//34 35//34 37//34 39//34 41//34 43//34 45//34 47//34 49//34 51//34 53//34 55//34 57//34 59//34 61//34 63//34
o Cube
v 1.000000 -1.000000 -1.000000
v 1.000000 -1.000000 1.000000
v -1.000000 -1.000000 1.000000
v -1.000000 -1.000000 -1.000000
v 1.000000 1.000000 -0.999999
v 0.999999 1.000000 1.000001
v -1.000000 1.000000 1.000000
v -1.000000 1.000000 -1.000000
vn 0.0000 -1.0000 0.0000
vn 0.0000 1.0000 0.0000
vn 1.0000 0.0000 0.0000
vn -0.0000 -0.0000 1.0000
vn -1.0000 -0.0000 -0.0000
vn 0.0000 0.0000 -1.0000
usemtl Material
s off
f 65//35 66//35 67//35 68//35
f 69//36 72//36 71//36 70//36
f 65//37 69//37 70//37 66//37
f 66//38 70//38 71//38 67//38
f 67//39 71//39 72//39 68//39
f 69//40 65//40 68//40 72//40
